<svg width="50" height="50" viewBox="0 0 50 50" version="1.1" xmlns="http://www.w3.org/2000/svg" xmlns:xlink="http://www.w3.org/1999/xlink">
<title>facebook</title>
<desc>Created using Figma</desc>
<g id="Canvas" transform="translate(603 -847)">
<g id="facebook">
<g id="Vector">
<use xlink:href="#path0_fill" transform="translate(-603 847)" fill="#FFFFFF"/>
</g>
</g>
</g>
<defs>
<path id="path0_fill" d="M 24.625 6.48499e-08C 11.025 6.48499e-08 -1.16348e-07 11.027 -1.16348e-07 24.625C -1.16348e-07 38.225 11.025 49.248 24.625 49.248C 38.225 49.248 49.25 38.225 49.25 24.625C 49.25 11.027 38.224 6.48499e-08 24.625 6.48499e-08ZM 31.142 24.522L 26.878 24.522C 26.878 31.336 26.878 39.729 26.878 39.729L 20.558 39.729C 20.558 39.729 20.558 31.422 20.558 24.522L 17.552 24.522L 17.552 19.153L 20.558 19.153L 20.558 15.674C 20.558 13.184 21.74 9.297 26.937 9.297L 31.617 9.315L 31.617 14.53C 31.617 14.53 28.771 14.53 28.219 14.53C 27.664 14.53 26.879 14.807 26.879 15.991L 26.879 19.154L 31.697 19.154L 31.142 24.522Z"/>
</defs>
</svg>
