<svg width="50" height="50" viewBox="0 0 50 50" version="1.1" xmlns="http://www.w3.org/2000/svg" xmlns:xlink="http://www.w3.org/1999/xlink">
<title>insta</title>
<desc>Created using Figma</desc>
<g id="Canvas" transform="translate(894 -653)">
<g id="insta">
<g id="Group">
<g id="Vector">
<use xlink:href="#path0_fill" transform="translate(-874 673.4)" fill="#FFFFFF"/>
</g>
<g id="Vector">
<use xlink:href="#path1_fill" transform="translate(-880.4 667)" fill="#FFFFFF"/>
</g>
<g id="Vector">
<use xlink:href="#path2_fill" transform="translate(-894 653)" fill="#FFFFFF"/>
</g>
</g>
</g>
</g>
<defs>
<path id="path0_fill" d="M 4.4 8.8C 6.83005 8.8 8.8 6.83005 8.8 4.4C 8.8 1.96995 6.83005 0 4.4 0C 1.96995 0 0 1.96995 0 4.4C 0 6.83005 1.96995 8.8 4.4 8.8Z"/>
<path id="path1_fill" d="M 16.3 7.62939e-07L 5.3 7.62939e-07C 3.7 7.62939e-07 2.3 0.5 1.4 1.4C 0.500001 2.3 -7.62939e-07 3.7 -7.62939e-07 5.3L -7.62939e-07 16.3C -7.62939e-07 17.9 0.499999 19.3 1.5 20.3C 2.5 21.2 3.8 21.7 5.4 21.7L 16.3 21.7C 17.9 21.7 19.3 21.2 20.2 20.3C 21.2 19.4 21.7 18 21.7 16.4L 21.7 5.4C 21.7 3.8 21.2 2.5 20.3 1.5C 19.3 0.500001 18 7.62939e-07 16.3 7.62939e-07ZM 10.8 17.6C 7 17.6 4 14.5 4 10.8C 4 7 7.1 4 10.8 4C 14.5 4 17.7 7 17.7 10.8C 17.7 14.6 14.6 17.6 10.8 17.6ZM 17.9 5.3C 17 5.3 16.3 4.6 16.3 3.7C 16.3 2.8 17 2.1 17.9 2.1C 18.8 2.1 19.5 2.8 19.5 3.7C 19.5 4.6 18.8 5.3 17.9 5.3Z"/>
<path id="path2_fill" d="M 24.6 -1.90735e-07C 11 -1.90735e-07 4.76837e-08 11 4.76837e-08 24.6C 4.76837e-08 38.2 11 49.2 24.6 49.2C 38.2 49.2 49.2 38.2 49.2 24.6C 49.3 11 38.2 -1.90735e-07 24.6 -1.90735e-07ZM 37.7 30.4C 37.7 32.7 36.9 34.7 35.5 36.1C 34.1 37.5 32.1 38.2 29.9 38.2L 19 38.2C 16.8 38.2 14.8 37.5 13.4 36.1C 11.9 34.7 11.2 32.7 11.2 30.4L 11.2 19.4C 11.2 14.8 14.3 11.6 19 11.6L 30 11.6C 32.3 11.6 34.2 12.4 35.6 13.8C 37 15.2 37.7 17.1 37.7 19.4L 37.7 30.4L 37.7 30.4Z"/>
</defs>
</svg>
