<svg width="50" height="50" viewBox="0 0 50 50" version="1.1" xmlns="http://www.w3.org/2000/svg" xmlns:xlink="http://www.w3.org/1999/xlink">
<title>youtube</title>
<desc>Created using Figma</desc>
<g id="Canvas" transform="translate(943 -862)">
<g id="youtube">
<g id="Group">
<g id="Vector">
<use xlink:href="#path0_fill" transform="translate(-928.889 887.19)" fill="#FFFFFF"/>
</g>
<g id="Vector">
<use xlink:href="#path1_fill" transform="translate(-919.016 875.409)" fill="#FFFFFF"/>
</g>
<g id="Vector">
<use xlink:href="#path2_fill" transform="translate(-917.414 887.19)" fill="#FFFFFF"/>
</g>
<g id="Vector">
<use xlink:href="#path3_fill" transform="translate(-922.93 889.908)" fill="#FFFFFF"/>
</g>
<g id="Vector">
<use xlink:href="#path4_fill" transform="translate(-943 862)" fill="#FFFFFF"/>
</g>
<g id="Vector">
<use xlink:href="#path5_fill" transform="translate(-912.219 889.719)" fill="#FFFFFF"/>
</g>
</g>
</g>
</g>
<defs>
<path id="path0_fill" d="M 1.83105e-07 1.508L 1.783 1.508L 1.783 10.365L 3.506 10.365L 3.506 1.508L 5.287 1.508L 5.287 -6.86646e-07L 1.83105e-07 -6.86646e-07L 1.83105e-07 1.508Z"/>
<path id="path1_fill" d="M 0.707 5.929C 0.941 5.929 1.127 5.867 1.264 5.74C 1.401 5.609 1.471 5.431 1.471 5.207L 1.471 0.617C 1.471 0.433 1.401 0.283 1.26 0.172C 1.119 0.0570001 0.936 -8.23975e-07 0.707 -8.23975e-07C 0.498 -8.23975e-07 0.327999 0.0570001 0.194999 0.172C 0.0639991 0.283 -6.2561e-07 0.434 -6.2561e-07 0.617L -6.2561e-07 5.207C -6.2561e-07 5.437 0.0609994 5.615 0.183999 5.74C 0.304999 5.867 0.481 5.929 0.707 5.929Z"/>
<path id="path2_fill" d="M 2.904 2.625C 2.666 2.625 2.431 2.686 2.199 2.807C 1.97 2.928 1.75 3.108 1.545 3.34L 1.545 -6.86646e-07L 5.64575e-07 -6.86646e-07L 5.64575e-07 10.365L 1.545 10.365L 1.545 9.779C 1.744 10.015 1.963 10.187 2.197 10.299C 2.429 10.41 2.697 10.465 2.998 10.465C 3.449 10.465 3.799 10.322 4.035 10.033C 4.275 9.742 4.396 9.328 4.396 8.787L 4.396 4.543C 4.396 3.916 4.269 3.439 4.011 3.115C 3.757 2.789 3.388 2.625 2.904 2.625ZM 2.82 8.576C 2.82 8.822 2.775 8.996 2.687 9.103C 2.599 9.212 2.462 9.265 2.275 9.265C 2.146 9.265 2.025 9.236 1.906 9.183C 1.789 9.13 1.666 9.037 1.545 8.913L 1.545 4.149C 1.649 4.042 1.754 3.963 1.859 3.915C 1.964 3.862 2.074 3.839 2.183 3.839C 2.388 3.839 2.548 3.905 2.66 4.036C 2.767 4.171 2.82 4.366 2.82 4.626L 2.82 8.576Z"/>
<path id="path3_fill" d="M 2.836 5.811C 2.693 5.975 2.535 6.11 2.363 6.219C 2.191 6.326 2.047 6.379 1.937 6.379C 1.792 6.379 1.689 6.34 1.623 6.258C 1.561 6.178 1.527 6.047 1.527 5.867L 1.527 -2.74658e-07L -1.83105e-07 -2.74658e-07L -1.83105e-07 6.395C -1.83105e-07 6.852 0.0899995 7.188 0.267999 7.42C 0.449999 7.647 0.712999 7.76 1.067 7.76C 1.354 7.76 1.651 7.682 1.956 7.518C 2.261 7.352 2.554 7.118 2.837 6.809L 2.837 7.647L 4.366 7.647L 4.366 0.000999176L 2.837 0.000999176L 2.837 5.811L 2.836 5.811Z"/>
<path id="path4_fill" d="M 24.625 2.09808e-07C 11.025 2.09808e-07 -1.16348e-07 11.025 -1.16348e-07 24.625C -1.16348e-07 38.227 11.025 49.25 24.625 49.25C 38.225 49.25 49.25 38.227 49.25 24.625C 49.25 11.025 38.224 2.09808e-07 24.625 2.09808e-07ZM 28.603 12.162L 30.322 12.162L 30.322 18.621C 30.322 18.822 30.361 18.965 30.433 19.053C 30.503 19.143 30.621 19.19 30.783 19.19C 30.908 19.19 31.068 19.129 31.263 19.012C 31.454 18.891 31.632 18.741 31.792 18.555L 31.792 12.162L 33.515 12.162L 33.515 20.586L 31.792 20.586L 31.792 19.656C 31.478 19.998 31.147 20.261 30.802 20.439C 30.46 20.617 30.128 20.709 29.804 20.709C 29.406 20.709 29.107 20.582 28.904 20.33C 28.705 20.082 28.603 19.707 28.603 19.201L 28.603 12.162ZM 22.213 14.088C 22.213 13.438 22.443 12.918 22.906 12.527C 23.371 12.144 23.994 11.949 24.775 11.949C 25.488 11.949 26.07 12.154 26.527 12.56C 26.98 12.966 27.207 13.494 27.207 14.138L 27.207 18.488C 27.207 19.211 26.984 19.775 26.541 20.183C 26.092 20.591 25.479 20.796 24.697 20.796C 23.945 20.796 23.342 20.585 22.89 20.165C 22.439 19.739 22.212 19.169 22.212 18.454L 22.212 14.088L 22.213 14.088ZM 17.525 9.168L 18.783 13.73L 18.906 13.73L 20.103 9.168L 22.072 9.168L 19.818 15.85L 19.818 20.587L 17.88 20.587L 17.88 16.061L 15.573 9.168L 17.525 9.168L 17.525 9.168ZM 40.064 33.201C 40.064 36.248 37.593 38.721 34.546 38.721L 15.37 38.721C 12.321 38.721 9.85 36.248 9.85 33.201L 9.85 28.763C 9.85 25.714 12.321 23.243 15.37 23.243L 34.546 23.243C 37.593 23.243 40.064 25.714 40.064 28.763L 40.064 33.201Z"/>
<path id="path5_fill" d="M 2.324 5.49316e-07C 1.638 5.49316e-07 1.084 0.206999 0.65 0.626999C 0.218 1.043 -1.64795e-06 1.586 -1.64795e-06 2.244L -1.64795e-06 5.682C -1.64795e-06 6.42 0.199001 6.998 0.592001 7.416C 0.985001 7.836 1.524 8.047 2.209 8.047C 2.971 8.047 3.543 7.85 3.924 7.455C 4.311 7.057 4.5 6.467 4.5 5.682L 4.5 5.289L 2.928 5.289L 2.928 5.637C 2.928 6.088 2.875 6.379 2.776 6.51C 2.677 6.641 2.499 6.707 2.245 6.707C 2.001 6.707 1.829 6.631 1.727 6.477C 1.627 6.319 1.579 6.041 1.579 5.637L 1.579 4.198L 4.501 4.198L 4.501 2.245C 4.501 1.522 4.315 0.967999 3.939 0.578999C 3.562 0.192999 3.023 5.49316e-07 2.324 5.49316e-07ZM 2.928 3.008L 1.578 3.008L 1.578 2.235C 1.578 1.915 1.627 1.682 1.734 1.549C 1.841 1.406 2.015 1.338 2.259 1.338C 2.489 1.338 2.663 1.406 2.767 1.549C 2.872 1.682 2.927 1.914 2.927 2.235L 2.927 3.008L 2.928 3.008Z"/>
</defs>
</svg>
